<svg xmlns="http://www.w3.org/2000/svg" width="24" height="24" viewBox="0 0 24 24" fill="none" stroke="currentColor" stroke-width="2" stroke-linecap="round" stroke-linejoin="round"><path d="M4 16v-2.38C4 11.5 2.97 10.43 3 8c.04-2.96 1.2-6 4.5-6C9.37 2 10 3.8 10 5c0 1.73-.78 4.18-1.17 6.07a3.25 3.25 0 0 0 2.2 3.57 5.59 5.59 0 0 1 1.4.68M4 16v4h4M4 16h4"/><path d="M20 16v-2.38c0-2.12 1.03-3.19 1-5.62-.04-2.96-1.2-6-4.5-6C14.63 2 14 3.8 14 5c0 1.73.78 4.18 1.17 6.07a3.25 3.25 0 0 1-2.2 3.57 5.59 5.59 0 0 0-1.4.68M20 16v4h-4M20 16h-4"/></svg>
